<svg width="45" height="39" viewBox="0 0 45 39" fill="none" xmlns="http://www.w3.org/2000/svg">
<path d="M8.57422 23.5293L8.49512 23.6211C8.44281 23.6823 8.36576 23.7737 8.26953 23.8906C8.0768 24.1248 7.80526 24.4648 7.49121 24.8838C6.86227 25.723 6.06544 26.8791 5.3877 28.1504C4.70848 29.4245 4.15692 30.8004 4.00586 32.0811C3.85558 33.3562 4.10275 34.5156 4.99316 35.4043C5.66862 36.0783 6.67696 36.4143 7.90625 36.4697C9.13395 36.525 10.5576 36.2991 12.0283 35.876C14.9713 35.0292 18.0578 33.4076 20.0674 31.7646L20.376 32.0977C18.141 34.4481 14.6621 36.7907 11.2061 38.0508C7.76724 39.3045 4.25274 39.5177 2.04297 37.4434C0.728677 36.2095 0.489273 34.6676 0.851562 33.0879C1.21113 31.5207 2.16384 29.8984 3.25684 28.4434C4.35264 26.9846 5.60353 25.6748 6.57812 24.7314C7.06551 24.2597 7.48535 23.8787 7.7832 23.6152C7.93188 23.4837 8.05127 23.3811 8.13281 23.3115C8.1733 23.277 8.20519 23.2504 8.22656 23.2324C8.23677 23.2239 8.24446 23.2165 8.25 23.2119C8.25255 23.2098 8.2554 23.2072 8.25684 23.2061L8.25879 23.2041H8.25977L8.57422 23.5293ZM4.78809 4.57715L12.3301 12.4766L12.4873 12.6416L12.3213 12.7979L11.3311 13.7344L12.2412 14.6865L14.292 12.751C13.9257 11.9397 13.7184 11.1684 13.7041 10.4902C13.6889 9.76811 13.8923 9.1355 14.3672 8.69336C15.1159 7.99574 16.2889 8.0044 17.5469 8.47852C18.7693 8.93937 20.1382 9.86095 21.4443 11.1436L23.8076 8.96582C23.7531 8.59328 23.8636 8.19374 24.1709 7.91113C24.6628 7.45937 25.4306 7.49062 25.8857 7.97949C26.341 8.46675 26.3119 9.23177 25.8193 9.68457C25.5121 9.96666 25.1053 10.0492 24.7363 9.9668L22.3789 12.1377C23.5712 13.5133 24.3999 14.9225 24.7783 16.1582C25.1685 17.4324 25.0978 18.5925 24.3477 19.292C23.8675 19.7387 23.2081 19.8955 22.4727 19.8262C21.7809 19.7609 21.0049 19.4934 20.1992 19.0605L18.21 20.9385L18.7939 21.5498L19.7881 20.6113L19.9521 20.4561L20.1084 20.6191L27.6494 28.5176L27.8076 28.6816L27.6406 28.8389L23.3379 32.9033L23.1738 33.0586L23.0176 32.8945L15.4756 24.9971L15.3174 24.832L15.4844 24.6748L16.4766 23.7393L15.8906 23.125L12.5771 26.252L12.4131 26.4062L12.2568 26.2432L6.60254 20.3193L6.44434 20.1533L6.61133 19.9971L9.92188 16.875L9.01367 15.9238L8.01855 16.8613L7.85449 17.0166L7.69824 16.8535L0.157227 8.95703L0 8.79102L0.165039 8.63477L4.46777 4.56934L4.63281 4.41406L4.78809 4.57715ZM39.3486 0.000976562C40.768 -0.0156961 42.0417 0.341927 42.9883 1.20605C44.4409 2.53239 44.7652 4.29649 44.3008 6.26855C43.8389 8.22913 42.5954 10.4187 40.8828 12.6631C37.4541 17.1563 32.0885 21.9415 27.0889 25.6641L26.8047 25.3105C31.3772 21.3433 35.8627 16.6456 38.6797 12.499C40.0894 10.4238 41.0701 8.50208 41.4434 6.88965C41.8158 5.28028 41.5757 4.02693 40.6172 3.20312C39.7592 2.46593 38.6287 2.16007 37.3506 2.17773C36.0715 2.19548 34.6595 2.53673 33.2656 3.07812C30.4735 4.16269 27.8052 6.02564 26.4795 7.56836L26.1338 7.27344C28.3036 4.69729 31.5752 2.35072 34.7578 1.05566C36.3495 0.408008 37.9302 0.0177064 39.3486 0.000976562ZM16.1338 9.5166C15.7173 9.47094 15.4458 9.54833 15.2979 9.68555C15.1476 9.82582 15.0513 10.0927 15.0713 10.5117C15.0912 10.9251 15.2233 11.4492 15.4785 12.0469H15.4795C15.9091 13.0564 16.6777 14.247 17.7979 15.4365L17.873 15.5137L17.874 15.5146C18.803 16.4874 19.7514 17.2257 20.6055 17.7197L20.9658 17.917C21.571 18.2302 22.1097 18.4094 22.54 18.4629C22.9774 18.5172 23.2609 18.4374 23.4131 18.2949C23.5677 18.1501 23.6658 17.8715 23.6387 17.4316C23.6152 17.0521 23.4996 16.5834 23.2842 16.0537L23.1855 15.8232V15.8223C23.1444 15.7298 23.0975 15.6328 23.0479 15.5322C22.6716 14.7692 22.1123 13.9236 21.3721 13.0625L21.165 13.2529L20.0986 14.2324L19.9326 14.3857L19.7793 14.2207L19.1592 13.5557L19.0039 13.3887L19.1719 13.2334L20.2285 12.2607L20.4365 12.0684C19.569 11.2252 18.7025 10.5875 17.9209 10.1582L17.6367 10.0107C17.058 9.72313 16.5444 9.56167 16.1338 9.5166Z" fill="url(#paint0_linear_34445_2832)"/>
<defs>
<linearGradient id="paint0_linear_34445_2832" x1="28.6332" y1="0.142716" x2="-13.3839" y2="9.26789" gradientUnits="userSpaceOnUse">
<stop stop-color="#F9C7ED"/>
<stop offset="1" stop-color="#0B33F0"/>
</linearGradient>
</defs>
</svg>
