<svg width="24" height="24" viewBox="0 0 24 24" fill="none" xmlns="http://www.w3.org/2000/svg">
<path d="M12 0C18.6274 0 24 5.37258 24 12C24 18.6274 18.6274 24 12 24C5.37258 24 0 18.6274 0 12C0 5.37258 5.37258 0 12 0Z" fill="url(#paint0_linear_34487_5972)" style="mix-blend-mode:screen"/>
<path d="M15.5566 9.74707C17.3461 9.74712 18.6875 10.9152 18.6875 13.4248V18.1094H15.9678V13.7383C15.9677 12.6403 15.5743 11.8916 14.5898 11.8916C13.839 11.8918 13.3919 12.3961 13.1953 12.8838C13.1234 13.0586 13.1055 13.3027 13.1055 13.5469V18.1104H10.3857C10.3857 18.1104 10.4216 10.7078 10.3857 9.93945H13.1055V11.0967C13.4664 10.5403 14.1128 9.74707 15.5566 9.74707ZM8.87988 18.1094H6.16113V9.93848H8.87988V18.1094ZM7.53809 6C8.46832 6 9.04182 6.61009 9.05957 7.41113C9.05957 8.19569 8.46874 8.82324 7.52051 8.82324H7.50293C6.59011 8.82311 6 8.1956 6 7.41113C6.00011 6.61022 6.6081 6.00019 7.53809 6Z" fill="#151515"/>
<defs>
<linearGradient id="paint0_linear_34487_5972" x1="0" y1="24" x2="35.7209" y2="24.0047" gradientUnits="userSpaceOnUse">
<stop stop-color="#E59CFF"/>
<stop offset="1" stop-color="#6067EE"/>
</linearGradient>
</defs>
</svg>
