<svg width="24" height="24" viewBox="0 0 24 24" fill="none" xmlns="http://www.w3.org/2000/svg">
<path d="M12 0C18.6274 0 24 5.37258 24 12C24 18.6274 18.6274 24 12 24C5.37258 24 0 18.6274 0 12C0 5.37258 5.37258 0 12 0ZM11.999 5.59961C10.2623 5.59961 10.0438 5.60761 9.36133 5.63867C8.68039 5.66987 8.21537 5.7774 7.80859 5.93555C7.38776 6.09898 7.03046 6.31811 6.6748 6.67383C6.3188 7.02957 6.09955 7.38681 5.93555 7.80762C5.77689 8.21467 5.66934 8.6803 5.63867 9.36133C5.60815 10.0437 5.59961 10.2622 5.59961 12C5.59961 13.7382 5.60774 13.956 5.63867 14.6387C5.67001 15.3196 5.77752 15.7846 5.93555 16.1914C6.09911 16.6122 6.31811 16.9695 6.67383 17.3252C7.02943 17.6812 7.38695 17.901 7.80762 18.0645C8.21475 18.2227 8.68028 18.3301 9.36133 18.3613C10.0438 18.3924 10.2622 18.4004 12 18.4004C13.7377 18.4004 13.9554 18.3924 14.6377 18.3613C15.319 18.3301 15.7852 18.2227 16.1924 18.0645C16.6132 17.901 16.9696 17.6812 17.3252 17.3252C17.6811 16.9695 17.8995 16.6122 18.0635 16.1914C18.2207 15.7844 18.3293 15.3195 18.3613 14.6387C18.392 13.956 18.4004 13.7382 18.4004 12C18.4004 10.2621 18.392 10.0438 18.3613 9.36133C18.3293 8.67999 18.2208 8.21455 18.0635 7.80762C17.8995 7.3868 17.6811 7.02949 17.3252 6.67383C16.9693 6.31797 16.6136 6.09885 16.1924 5.93555C15.7845 5.77732 15.3188 5.6699 14.6377 5.63867C13.9551 5.60761 13.7373 5.59961 11.999 5.59961Z" fill="url(#paint0_linear_34484_4825)" style="mix-blend-mode:screen"/>
<path d="M11.4268 6.75366C11.5971 6.7534 11.7875 6.75366 12.001 6.75366C13.7095 6.75366 13.9122 6.75913 14.5869 6.78979C15.2108 6.81834 15.5498 6.9229 15.7754 7.0105C16.0739 7.12648 16.2869 7.26508 16.5107 7.48901C16.7347 7.71301 16.873 7.92668 16.9893 8.22534C17.0768 8.45063 17.1815 8.78912 17.21 9.41284C17.2406 10.0875 17.2471 10.2908 17.2471 11.9988C17.2471 13.7064 17.2406 13.9092 17.21 14.5837C17.1814 15.2077 17.0769 15.5469 16.9893 15.7722C16.8733 16.0707 16.7347 16.2838 16.5107 16.5076C16.2868 16.7315 16.074 16.8701 15.7754 16.9861C15.5501 17.0741 15.2109 17.1782 14.5869 17.2068C13.9123 17.2375 13.7095 17.2439 12.001 17.2439C10.292 17.2439 10.0887 17.2375 9.41406 17.2068C8.7903 17.178 8.45128 17.0737 8.22559 16.9861C7.92706 16.8701 7.71417 16.7305 7.49023 16.5066C7.2663 16.2826 7.12699 16.07 7.01074 15.7712C6.92318 15.5459 6.81943 15.2073 6.79102 14.5837C6.76035 13.9091 6.75391 13.7059 6.75391 11.9968C6.75391 10.2881 6.76036 10.0863 6.79102 9.41187C6.81954 8.78802 6.92316 8.44899 7.01074 8.22339C7.12674 7.92472 7.26623 7.71106 7.49023 7.48706C7.71404 7.2633 7.92726 7.12474 8.22559 7.00854C8.45114 6.92056 8.79032 6.81654 9.41406 6.78784C10.0045 6.76117 10.2339 6.75304 11.4268 6.75171V6.75366ZM12.001 8.71362C10.186 8.71362 8.71404 10.1848 8.71387 11.9998C8.71387 13.8148 10.1859 15.2859 12.001 15.2859C13.8159 15.2857 15.2871 13.8148 15.2871 11.9998C15.2869 10.1849 13.8158 8.71384 12.001 8.71362ZM15.417 7.81616C14.993 7.81616 14.6494 8.1596 14.6494 8.58374C14.6494 9.00774 14.993 9.35132 15.417 9.35132C15.841 9.35129 16.1846 9.00772 16.1846 8.58374C16.1846 8.15975 15.841 7.81619 15.417 7.81616Z" fill="url(#paint1_linear_34484_4825)" style="mix-blend-mode:screen"/>
<path d="M12.0005 9.8667C13.1787 9.8667 14.1339 10.8218 14.1339 12.0001C14.1339 13.1782 13.1787 14.1334 12.0005 14.1334C10.8223 14.1334 9.86719 13.1782 9.86719 12.0001C9.86719 10.8218 10.8223 9.8667 12.0005 9.8667V9.8667Z" fill="url(#paint2_linear_34484_4825)" style="mix-blend-mode:screen"/>
<defs>
<linearGradient id="paint0_linear_34484_4825" x1="0" y1="24" x2="35.7209" y2="24.0047" gradientUnits="userSpaceOnUse">
<stop stop-color="#E59CFF"/>
<stop offset="1" stop-color="#6067EE"/>
</linearGradient>
<linearGradient id="paint1_linear_34484_4825" x1="6.75391" y1="17.2439" x2="22.3716" y2="17.246" gradientUnits="userSpaceOnUse">
<stop stop-color="#E59CFF"/>
<stop offset="1" stop-color="#6067EE"/>
</linearGradient>
<linearGradient id="paint2_linear_34484_4825" x1="9.86719" y1="14.1334" x2="16.2176" y2="14.1343" gradientUnits="userSpaceOnUse">
<stop stop-color="#E59CFF"/>
<stop offset="1" stop-color="#6067EE"/>
</linearGradient>
</defs>
</svg>
