<svg width="78" height="31" viewBox="0 0 78 31" fill="none" xmlns="http://www.w3.org/2000/svg">
<path d="M6.65625 18.2623H6.65527V18.2633C6.65456 18.264 6.65344 18.2651 6.65234 18.2662L6.59375 18.3326C6.55311 18.3802 6.49374 18.4517 6.41895 18.5426C6.26936 18.7244 6.05912 18.988 5.81543 19.3131C5.3274 19.9643 4.70857 20.8609 4.18262 21.8473C3.65544 22.8362 3.22662 23.905 3.10938 24.899C2.99275 25.8888 3.18476 26.7894 3.87598 27.4791C4.40027 28.0023 5.1835 28.2633 6.1377 28.3063C7.09039 28.3491 8.19471 28.1727 9.33594 27.8444C11.6202 27.1871 14.0165 25.9281 15.5762 24.653L15.8145 24.9117C14.0799 26.7357 11.3812 28.5549 8.69922 29.5328C6.03024 30.5059 3.30203 30.67 1.58691 29.0602C0.567058 28.1026 0.379926 26.9063 0.661133 25.6803C0.940199 24.4638 1.6809 23.2052 2.5293 22.0758C3.37981 20.9436 4.35101 19.9271 5.10742 19.1949C5.48567 18.8288 5.81087 18.5322 6.04199 18.3278C6.15729 18.2258 6.24926 18.1464 6.3125 18.0924C6.34411 18.0654 6.3691 18.0449 6.38574 18.0309C6.39406 18.0239 6.40095 18.0179 6.40527 18.0143C6.40682 18.013 6.40817 18.0121 6.40918 18.0114L6.41113 18.0104V18.0094L6.65625 18.2623ZM3.7168 3.55237L9.57031 9.68323L9.69336 9.81116L9.56445 9.93323L8.79492 10.6598L9.50098 11.399L11.0938 9.89612C10.8095 9.26644 10.6488 8.66755 10.6377 8.14124C10.626 7.58094 10.7829 7.0898 11.1514 6.7467C11.7326 6.20513 12.6436 6.21353 13.6201 6.58167C14.5688 6.93941 15.6299 7.65465 16.6436 8.65002L18.4785 6.95959C18.436 6.67035 18.5222 6.35977 18.7607 6.14026C19.1425 5.78958 19.7385 5.81355 20.0918 6.19299V6.19397C20.4447 6.57224 20.4223 7.16596 20.04 7.51721C19.802 7.73557 19.4871 7.79844 19.2012 7.73499L17.3691 9.42249C18.2941 10.4898 18.9377 11.5819 19.2314 12.5406C19.5343 13.5294 19.4803 14.4293 18.8984 14.9723H18.8975C18.5248 15.319 18.0141 15.4411 17.4434 15.3873C16.9064 15.3367 16.3041 15.1295 15.6787 14.7936L14.1338 16.2516L14.5879 16.7262L15.3584 15.9967L15.4873 15.8776L15.6074 16.0035L21.4609 22.1334L21.583 22.2614L21.4541 22.3824L18.1143 25.5367L17.9873 25.6569L17.8652 25.5309L12.0117 19.401L11.8896 19.2731L12.0186 19.151L12.7891 18.4244L12.334 17.9489L9.76172 20.3756L9.63477 20.4948L9.51465 20.3688L5.12598 15.7701L5.00293 15.6422L5.13281 15.5201L7.70215 13.0973L6.99609 12.359L6.22363 13.0875L6.09668 13.2067L5.97559 13.0797L0.123047 6.95081L0 6.82288L0.129883 6.70081L3.46875 3.54651L3.59668 3.42639L3.7168 3.55237ZM42.332 6.60999C44.7841 6.60999 46.6402 7.42185 47.8994 9.04553C48.4295 9.75789 48.811 10.5611 49.043 11.4557H46.8057C46.6565 10.9918 46.3918 10.5358 46.0107 10.0885C45.0995 9.17732 43.8728 8.72229 42.332 8.72229C41.0896 8.72236 40.1118 9.00376 39.3994 9.56702C38.7038 10.1137 38.3565 10.7847 38.3564 11.5797C38.3564 11.9607 38.4635 12.3089 38.6787 12.6237C38.8941 12.9384 39.151 13.2042 39.4492 13.4196C39.7474 13.6184 40.1622 13.8253 40.6924 14.0406C41.239 14.2394 41.7196 14.3964 42.1338 14.5123C42.5479 14.6283 43.0944 14.7696 43.7734 14.9352C44.5356 15.134 45.2072 15.3576 45.7871 15.6061C46.3669 15.8546 46.9299 16.1695 47.4766 16.5504C48.0233 16.9315 48.4381 17.4041 48.7197 17.9674C49.0178 18.5306 49.167 19.177 49.167 19.9059C49.1669 21.3306 48.5785 22.5398 47.4023 23.5338C46.226 24.5113 44.6189 25.0006 42.5811 25.0006C39.9136 25.0006 37.9173 24.0887 36.5918 22.2662C36.012 21.4876 35.606 20.5766 35.374 19.5328H37.6104C37.7926 20.1622 38.0909 20.7254 38.5049 21.2223C39.4327 22.3324 40.7917 22.8873 42.5811 22.8873C44.0059 22.8873 45.0825 22.6059 45.8115 22.0426C46.557 21.4794 46.9296 20.7673 46.9297 19.9059C46.9297 19.1769 46.6316 18.5964 46.0352 18.1656C45.4388 17.735 44.5941 17.3622 43.501 17.0475C43.3022 16.9812 42.9786 16.89 42.5312 16.774C42.1007 16.6581 41.7612 16.5669 41.5127 16.5006C41.2642 16.4344 40.9326 16.3352 40.5186 16.2028C40.1044 16.0702 39.7729 15.9535 39.5244 15.8541C39.276 15.7382 38.9776 15.5979 38.6299 15.4323C38.282 15.25 37.9996 15.0755 37.7842 14.9098C37.5855 14.7442 37.3616 14.5459 37.1133 14.3141C36.8813 14.0656 36.6989 13.8086 36.5664 13.5436C36.4505 13.2786 36.3426 12.9803 36.2432 12.649C36.1603 12.3177 36.1191 11.9608 36.1191 11.5797C36.1192 10.2213 36.6909 9.05324 37.834 8.07581C38.9771 7.09836 40.4766 6.61006 42.332 6.60999ZM66.6787 6.60999C69.5284 6.60999 71.8238 7.6454 73.5635 9.71643C74.3255 10.6607 74.8885 11.6964 75.2529 12.8229H73.0166C72.7019 12.0609 72.2546 11.3812 71.6748 10.7848C70.2996 9.40963 68.6338 8.72229 66.6787 8.72229C64.6741 8.72236 63.0335 9.37636 61.7578 10.6852C60.4822 11.9941 59.8447 13.7012 59.8447 15.8053C59.8448 17.9091 60.4823 19.6157 61.7578 20.9244C63.0335 22.2333 64.6741 22.8873 66.6787 22.8873C68.4182 22.8873 69.8764 22.3743 71.0527 21.3473C72.2456 20.3201 72.983 19.0522 73.2646 17.5446H69.9102V15.4323H77.6143V17.5446H75.502C74.9883 19.7978 73.9608 21.6039 72.4199 22.9625C70.8791 24.3211 68.9651 25.0006 66.6787 25.0006C64.0611 25.0005 61.891 24.1386 60.168 22.4156C58.4615 20.6761 57.6085 18.4726 57.6084 15.8053C57.6084 13.1378 58.4615 10.9424 60.168 9.21936C61.891 7.47976 64.0611 6.61005 66.6787 6.60999ZM54.501 24.5035H52.2646V7.10706H54.501V24.5035ZM30.541 0.00158691C31.6426 -0.0113456 32.6315 0.264502 33.3662 0.935181C34.4937 1.96461 34.7452 3.33425 34.3848 4.86487C34.0263 6.38644 33.0615 8.08593 31.7324 9.82776C29.0712 13.3152 24.9059 17.0293 21.0254 19.9186L20.8047 19.6442C24.3537 16.5649 27.8361 12.9182 30.0225 9.69983C31.1164 8.08942 31.8773 6.59861 32.167 5.34729C32.4561 4.09806 32.2695 3.12439 31.5254 2.48499C30.8595 1.91302 29.982 1.67539 28.9902 1.68909C27.9976 1.70285 26.9021 1.96915 25.8203 2.38928C23.6535 3.23096 21.5818 4.67539 20.5527 5.87268L20.2842 5.64514C21.9683 3.64567 24.5074 1.82314 26.9775 0.817993C28.2129 0.315353 29.4402 0.014562 30.541 0.00158691ZM12.5234 7.38538C12.2 7.3499 11.9888 7.41064 11.874 7.51721C11.7576 7.62615 11.6837 7.83292 11.6992 8.15784C11.7146 8.47883 11.8164 8.88609 12.0146 9.35022C12.3481 10.1338 12.945 11.0578 13.8145 11.9811L13.873 12.0406L13.874 12.0416C14.6981 12.9045 15.5417 13.5285 16.2734 13.9049L16.2744 13.9059C16.7438 14.1488 17.1612 14.2872 17.4951 14.3287C17.8341 14.3708 18.0546 14.3101 18.1729 14.1998C18.2928 14.0873 18.3698 13.8695 18.3486 13.528C18.3329 13.2756 18.263 12.9734 18.1387 12.6334L17.9961 12.2809L17.8887 12.0553C17.5966 11.463 17.1635 10.8058 16.5889 10.1373L16.4277 10.2858L15.6006 11.0465L15.4717 11.1656L15.3525 11.0367L15.1113 10.7789L14.8711 10.5211L14.751 10.3912L14.8809 10.2711L15.7012 9.51624L15.8633 9.36682C15.1899 8.71222 14.5169 8.21765 13.9102 7.8844L13.6895 7.77014C13.2403 7.54691 12.8422 7.4204 12.5234 7.38538Z" fill="url(#paint0_linear_34412_2582)"/>
<defs>
<linearGradient id="paint0_linear_34412_2582" x1="49.9425" y1="0.11062" x2="-12.0371" y2="30.3608" gradientUnits="userSpaceOnUse">
<stop stop-color="#F9C7ED"/>
<stop offset="1" stop-color="#0B33F0"/>
</linearGradient>
</defs>
</svg>
