<svg width="24" height="24" viewBox="0 0 24 24" fill="none" xmlns="http://www.w3.org/2000/svg">
<path d="M12 0C18.6274 0 24 5.37258 24 12C24 18.6274 18.6274 24 12 24C5.37258 24 0 18.6274 0 12C0 5.37258 5.37258 0 12 0ZM17.8965 8.22559C18.098 7.41775 17.5884 7.05068 17.0605 7.29004L5.50098 11.7471C4.71212 12.0635 4.71694 12.5041 5.35742 12.7002L8.32422 13.626L15.1914 9.29395C15.5156 9.09745 15.8125 9.20321 15.5684 9.41992L10.0039 14.4414L9.7998 17.5C10.0998 17.5 10.2329 17.363 10.4004 17.2002L11.8418 15.7988L14.8398 18.0137C15.3916 18.3181 15.7902 18.1608 15.9277 17.502L17.8965 8.22559Z" fill="url(#paint0_linear_34484_4829)" style="mix-blend-mode:screen"/>
<defs>
<linearGradient id="paint0_linear_34484_4829" x1="0" y1="24" x2="35.7209" y2="24.0047" gradientUnits="userSpaceOnUse">
<stop stop-color="#E59CFF"/>
<stop offset="1" stop-color="#6067EE"/>
</linearGradient>
</defs>
</svg>
